<svg width="17" height="17" viewBox="0 0 17 17" fill="none" xmlns="http://www.w3.org/2000/svg">
<path d="M11.556 14.9151L15.7 14.9151C15.9122 14.9151 16.1157 14.8306 16.2657 14.6802C16.4157 14.5298 16.5 14.3259 16.5 14.1132C16.5 13.9005 16.4157 13.6966 16.2657 13.5462C16.1157 13.3958 15.9122 13.3113 15.7 13.3113L11.556 13.3113C11.3878 12.8469 11.0811 12.4456 10.6775 12.1621C10.2738 11.8785 9.7929 11.7264 9.3 11.7264C8.8071 11.7264 8.32616 11.8785 7.92253 12.1621C7.5189 12.4456 7.21216 12.8469 7.044 13.3113L1.3 13.3113C1.08783 13.3113 0.884344 13.3958 0.734314 13.5462C0.584285 13.6966 0.5 13.9005 0.5 14.1132C0.5 14.3259 0.584285 14.5298 0.734314 14.6802C0.884343 14.8306 1.08783 14.9151 1.3 14.9151L7.044 14.9151C7.21216 15.3795 7.5189 15.7808 7.92253 16.0643C8.32616 16.3479 8.8071 16.5 9.3 16.5C9.7929 16.5 10.2738 16.3479 10.6775 16.0643C11.0811 15.7808 11.3878 15.3795 11.556 14.9151ZM8.5 14.1132C8.5 13.9546 8.54692 13.7996 8.63482 13.6677C8.72273 13.5358 8.84767 13.4331 8.99385 13.3724C9.14003 13.3117 9.30089 13.2958 9.45607 13.3267C9.61126 13.3577 9.7538 13.434 9.86568 13.5462C9.97757 13.6583 10.0538 13.8012 10.0846 13.9568C10.1155 14.1123 10.0997 14.2735 10.0391 14.4201C9.97855 14.5666 9.87602 14.6918 9.74446 14.7799C9.6129 14.8681 9.45822 14.9151 9.3 14.9151C9.08783 14.9151 8.88434 14.8306 8.73431 14.6802C8.58429 14.5298 8.5 14.3259 8.5 14.1132ZM6.756 9.30189L15.7 9.30189C15.9122 9.30189 16.1157 9.2174 16.2657 9.06702C16.4157 8.91664 16.5 8.71267 16.5 8.5C16.5 8.28733 16.4157 8.08336 16.2657 7.93298C16.1157 7.7826 15.9122 7.69811 15.7 7.69811L6.756 7.69811C6.58784 7.2337 6.2811 6.83245 5.87747 6.54888C5.47384 6.26532 4.9929 6.1132 4.5 6.1132C4.0071 6.1132 3.52616 6.26532 3.12253 6.54888C2.7189 6.83245 2.41216 7.2337 2.244 7.69811L1.3 7.69811C1.08783 7.69811 0.884344 7.7826 0.734315 7.93298C0.584285 8.08336 0.500001 8.28733 0.500001 8.5C0.500001 8.71267 0.584285 8.91664 0.734315 9.06702C0.884344 9.2174 1.08783 9.30189 1.3 9.30189L2.244 9.30189C2.41216 9.7663 2.7189 10.1676 3.12253 10.4511C3.52616 10.7347 4.0071 10.8868 4.5 10.8868C4.9929 10.8868 5.47384 10.7347 5.87747 10.4511C6.2811 10.1676 6.58784 9.7663 6.756 9.30189ZM3.7 8.5C3.7 8.3414 3.74692 8.18636 3.83482 8.0545C3.92273 7.92263 4.04767 7.81985 4.19385 7.75915C4.34004 7.69846 4.50089 7.68258 4.65607 7.71352C4.81126 7.74446 4.9538 7.82083 5.06569 7.93298C5.17757 8.04513 5.25376 8.18801 5.28463 8.34356C5.3155 8.49911 5.29965 8.66034 5.2391 8.80687C5.17855 8.95339 5.07602 9.07863 4.94446 9.16674C4.8129 9.25486 4.65823 9.30189 4.5 9.30189C4.28783 9.30189 4.08434 9.2174 3.93431 9.06702C3.78429 8.91664 3.7 8.71267 3.7 8.5ZM13.156 3.68868L15.7 3.68868C15.9122 3.68868 16.1157 3.6042 16.2657 3.45381C16.4157 3.30343 16.5 3.09947 16.5 2.8868C16.5 2.67412 16.4157 2.47016 16.2657 2.31978C16.1157 2.16939 15.9122 2.08491 15.7 2.08491L13.156 2.08491C12.9878 1.6205 12.6811 1.21924 12.2775 0.935679C11.8738 0.652117 11.3929 0.5 10.9 0.5C10.4071 0.5 9.92616 0.652117 9.52253 0.935679C9.1189 1.21924 8.81216 1.62049 8.644 2.08491L1.3 2.08491C1.08783 2.08491 0.884344 2.16939 0.734315 2.31978C0.584286 2.47016 0.500001 2.67412 0.500001 2.8868C0.500001 3.09947 0.584286 3.30343 0.734315 3.45381C0.884344 3.6042 1.08783 3.68868 1.3 3.68868L8.644 3.68868C8.81216 4.1531 9.1189 4.55435 9.52253 4.83791C9.92616 5.12147 10.4071 5.27359 10.9 5.27359C11.3929 5.27359 11.8738 5.12147 12.2775 4.83791C12.6811 4.55435 12.9878 4.1531 13.156 3.68868ZM10.1 2.8868C10.1 2.7282 10.1469 2.57316 10.2348 2.44129C10.3227 2.30942 10.4477 2.20664 10.5939 2.14595C10.74 2.08526 10.9009 2.06938 11.0561 2.10032C11.2113 2.13126 11.3538 2.20763 11.4657 2.31978C11.5776 2.43192 11.6538 2.5748 11.6846 2.73036C11.7155 2.88591 11.6997 3.04714 11.6391 3.19366C11.5786 3.34019 11.476 3.46543 11.3445 3.55354C11.2129 3.64165 11.0582 3.68868 10.9 3.68868C10.6878 3.68868 10.4843 3.6042 10.3343 3.45381C10.1843 3.30343 10.1 3.09947 10.1 2.8868Z" fill="#1A1A1A"/>
</svg>
