<svg width="28" height="28" viewBox="0 0 28 28" fill="none" xmlns="http://www.w3.org/2000/svg">
<rect width="28" height="28" rx="14" fill="#E7E7E7"/>
<path d="M15.1194 10.728C15.1194 11.8385 15.0746 12.8499 14.9851 13.762C14.8955 14.661 14.7836 15.56 14.6493 16.4589H13.3507C13.2164 15.56 13.1045 14.661 13.0149 13.762C12.9254 12.8499 12.8806 11.8385 12.8806 10.728V7H15.1194V10.728ZM15.5 19.6714C15.5 20.0283 15.3657 20.339 15.097 20.6034C14.8284 20.8678 14.4627 21 14 21C13.5373 21 13.1716 20.8678 12.903 20.6034C12.6343 20.339 12.5 20.0283 12.5 19.6714C12.5 19.3144 12.6343 19.0038 12.903 18.7394C13.1716 18.475 13.5373 18.3428 14 18.3428C14.4627 18.3428 14.8284 18.475 15.097 18.7394C15.3657 19.0038 15.5 19.3144 15.5 19.6714Z" fill="#1A1A1A"/>
</svg>
