<svg width="45" height="45" viewBox="0 0 45 45" fill="none" xmlns="http://www.w3.org/2000/svg">
<path fill-rule="evenodd" clip-rule="evenodd" d="M11.5312 0H26.5761L39.3272 13.2909V39.1417C39.3272 42.3801 36.7073 45 33.4801 45H11.5312C8.29278 45 5.67285 42.3801 5.67285 39.1417V5.8583C5.67279 2.61993 8.29273 0 11.5312 0Z" fill="#E5252A"/>
<path opacity="0.302" fill-rule="evenodd" clip-rule="evenodd" d="M26.5645 0V13.1897H39.3268L26.5645 0Z" fill="white"/>
<path d="M12.1831 33.5756V25.356H15.6801C16.5459 25.356 17.2319 25.5921 17.7491 26.0756C18.2663 26.5479 18.525 27.1888 18.525 27.9871C18.525 28.7855 18.2663 29.4264 17.7491 29.8987C17.2319 30.3822 16.5459 30.6183 15.6801 30.6183H14.2858V33.5756H12.1831ZM14.2858 28.8305H15.444C15.7588 28.8305 16.0062 28.763 16.1749 28.6056C16.3435 28.4595 16.4335 28.257 16.4335 27.9872C16.4335 27.7174 16.3436 27.5149 16.1749 27.3688C16.0063 27.2113 15.7589 27.1439 15.444 27.1439H14.2858V28.8305ZM19.3907 33.5756V25.356H22.303C22.8765 25.356 23.4162 25.4346 23.9222 25.6033C24.4282 25.772 24.8893 26.0082 25.294 26.3342C25.6988 26.6491 26.0249 27.0763 26.261 27.6161C26.4859 28.1558 26.6096 28.7743 26.6096 29.4714C26.6096 30.1573 26.486 30.7758 26.261 31.3155C26.0249 31.8552 25.6988 32.2825 25.294 32.5973C24.8892 32.9234 24.4282 33.1595 23.9222 33.3282C23.4162 33.4969 22.8765 33.5756 22.303 33.5756H19.3907ZM21.4485 31.7878H22.0556C22.3817 31.7878 22.6853 31.7541 22.9664 31.6753C23.2363 31.5966 23.4949 31.4729 23.7423 31.3043C23.9785 31.1356 24.1696 30.8994 24.3045 30.5846C24.4395 30.2698 24.5069 29.8987 24.5069 29.4714C24.5069 29.0329 24.4395 28.6618 24.3045 28.347C24.1696 28.0322 23.9785 27.796 23.7423 27.6274C23.4949 27.4587 23.2363 27.335 22.9664 27.2563C22.6853 27.1776 22.3817 27.1438 22.0556 27.1438H21.4485V31.7878ZM27.6666 33.5756V25.356H33.5137V27.1438H29.7693V28.4594H32.7603V30.236H29.7693V33.5756H27.6666Z" fill="white"/>
</svg>
