<svg width="32" height="31" viewBox="0 0 32 31" fill="none" xmlns="http://www.w3.org/2000/svg">
<path d="M1 1H5.42581L7.25 7.25" stroke="#1A1A1A" stroke-miterlimit="10" stroke-linecap="round" stroke-linejoin="round"/>
<path d="M28.2021 30.198C29.2714 29.7551 29.7791 28.5293 29.3362 27.46C28.8933 26.3907 27.6675 25.883 26.5982 26.3259C25.5289 26.7688 25.0212 27.9947 25.4641 29.0639C25.907 30.1332 27.1328 30.641 28.2021 30.198Z" stroke="#1A1A1A" stroke-miterlimit="10" stroke-linecap="round" stroke-linejoin="round"/>
<path d="M13.293 28.747C13.559 27.6207 12.8615 26.4919 11.7351 26.2259C10.6087 25.96 9.47999 26.6575 9.21402 27.7839C8.94804 28.9102 9.64554 30.039 10.7719 30.305C11.8983 30.5709 13.0271 29.8734 13.293 28.747Z" stroke="#1A1A1A" stroke-miterlimit="10" stroke-linecap="round" stroke-linejoin="round"/>
<path d="M11.0819 21.8259C9.94813 21.8259 9.02898 22.7602 9.02898 23.9129C9.02898 25.0656 9.94807 26 11.0819 26H27.2941M7.25 7.25L11.0444 21.8259H27.2057L31 7.25H7.25Z" stroke="#1A1A1A" stroke-miterlimit="10" stroke-linecap="round" stroke-linejoin="round"/>
</svg>
