<svg width="345" height="64" viewBox="0 0 345 64" fill="none" xmlns="http://www.w3.org/2000/svg">
<path d="M17.8535 63.5344C12.7685 63.5344 8.60544 62.4328 5.36443 60.2296C2.1793 58.0264 0.391157 54.8869 0 50.811H3.85568C4.13508 53.7302 5.47619 56.0436 7.87901 57.751C10.3377 59.4585 13.6625 60.3122 17.8535 60.3122C21.318 60.3122 24.0561 59.4585 26.0678 57.751C28.1353 55.9885 29.1691 53.8404 29.1691 51.3067C29.1691 49.5442 28.6103 48.1121 27.4927 47.0105C26.431 45.8538 25.0899 44.9725 23.4694 44.3667C21.8489 43.7608 19.6416 43.0998 16.8477 42.3838C13.4949 41.5025 10.7847 40.6488 8.7172 39.8226C6.64966 38.9413 4.88946 37.647 3.43659 35.9395C1.98372 34.232 1.25729 31.9462 1.25729 29.0821C1.25729 26.989 1.8999 25.0612 3.18513 23.2987C4.47036 21.4811 6.2585 20.049 8.54956 19.0025C10.8406 17.956 13.439 17.4327 16.3448 17.4327C21.0945 17.4327 24.9223 18.6169 27.828 20.9854C30.7896 23.2987 32.3822 26.5209 32.6057 30.6518H28.8338C28.6662 27.6775 27.4927 25.254 25.3134 23.3813C23.1341 21.5086 20.1166 20.5723 16.2609 20.5723C13.0199 20.5723 10.3377 21.3985 8.21429 23.0508C6.09087 24.7032 5.02915 26.7136 5.02915 29.0821C5.02915 31.1751 5.61589 32.8826 6.78936 34.2045C8.01871 35.4713 9.49951 36.4627 11.2318 37.1788C13.0199 37.8397 15.3669 38.5558 18.2726 39.3269C21.4577 40.1531 24.0002 40.9793 25.9001 41.8055C27.8559 42.5766 29.5044 43.7333 30.8455 45.2755C32.1866 46.7626 32.8571 48.773 32.8571 51.3067C32.8571 53.6201 32.2145 55.7131 30.9293 57.5858C29.6441 59.4585 27.8559 60.9181 25.5649 61.9646C23.2738 63.0111 20.7034 63.5344 17.8535 63.5344Z" fill="white"/>
<path d="M49.9622 21.2332V50.8936C49.9622 54.1984 50.5768 56.4842 51.8062 57.751C53.0355 58.9628 55.2148 59.5687 58.3441 59.5687H63.4571V62.8734H57.7574C53.7899 62.8734 50.8562 61.9646 48.9563 60.147C47.1123 58.2743 46.1903 55.1898 46.1903 50.8936V21.2332H39.3171V18.0111H46.1903V6.60956H49.9622V18.0111H63.4571V21.2332H49.9622Z" fill="white"/>
<path d="M71.0578 40.4009C71.0578 35.7742 71.9798 31.7259 73.8238 28.2559C75.7237 24.7859 78.3221 22.1145 81.619 20.2418C84.9718 18.3691 88.7716 17.4327 93.0184 17.4327C97.824 17.4327 101.903 18.5894 105.256 20.9027C108.609 23.2161 110.956 26.1628 112.297 29.743V18.0111H116.069V62.8734H112.297V51.0589C110.956 54.6941 108.581 57.6959 105.172 60.0644C101.819 62.3777 97.7682 63.5344 93.0184 63.5344C88.7716 63.5344 84.9718 62.598 81.619 60.7253C78.3221 58.7975 75.7237 56.0986 73.8238 52.6286C71.9798 49.1035 71.0578 45.0276 71.0578 40.4009ZM112.297 40.4009C112.297 36.4903 111.459 33.0478 109.782 30.0735C108.162 27.0441 105.927 24.7308 103.077 23.1335C100.227 21.4811 97.0417 20.6549 93.5213 20.6549C89.8333 20.6549 86.5923 21.4535 83.7983 23.0508C81.0043 24.5931 78.825 26.8513 77.2604 29.8256C75.6958 32.7999 74.9134 36.325 74.9134 40.4009C74.9134 44.4768 75.6958 48.0019 77.2604 50.9762C78.825 53.9505 81.0043 56.2363 83.7983 57.8337C86.6481 59.431 89.8892 60.2296 93.5213 60.2296C97.0417 60.2296 100.227 59.431 103.077 57.8337C105.982 56.1813 108.246 53.8679 109.866 50.8936C111.487 47.8642 112.297 44.3667 112.297 40.4009Z" fill="white"/>
<path d="M145.225 58.8251L161.989 18.0111H166.013L147.153 62.8734H143.214L124.354 18.0111H128.462L145.225 58.8251Z" fill="white"/>
<path d="M181.54 26.0251C183.105 23.3262 185.396 21.1231 188.413 19.4156C191.431 17.7081 194.867 16.8544 198.723 16.8544C202.858 16.8544 206.574 17.8183 209.871 19.7461C213.168 21.6739 215.766 24.4003 217.666 27.9254C219.566 31.3954 220.516 35.4438 220.516 40.0705C220.516 44.6421 219.566 48.718 217.666 52.2981C215.766 55.8783 213.14 58.6598 209.787 60.6427C206.49 62.6256 202.802 63.617 198.723 63.617C194.756 63.617 191.263 62.7633 188.246 61.0558C185.284 59.3483 183.049 57.1727 181.54 54.5289V62.8734H173.912V1.73501H181.54V26.0251ZM212.721 40.0705C212.721 36.6555 212.022 33.6812 210.625 31.1476C209.228 28.6139 207.328 26.6861 204.926 25.3642C202.579 24.0423 199.98 23.3813 197.13 23.3813C194.336 23.3813 191.738 24.0698 189.335 25.4468C186.988 26.7687 185.088 28.724 183.636 31.3128C182.239 33.8465 181.54 36.7932 181.54 40.1531C181.54 43.568 182.239 46.5699 183.636 49.1586C185.088 51.6923 186.988 53.6476 189.335 55.0246C191.738 56.3465 194.336 57.0075 197.13 57.0075C199.98 57.0075 202.579 56.3465 204.926 55.0246C207.328 53.6476 209.228 51.6923 210.625 49.1586C212.022 46.5699 212.721 43.5405 212.721 40.0705Z" fill="white"/>
<path d="M234.495 10.2448C233.043 10.2448 231.813 9.7491 230.807 8.75767C229.802 7.76623 229.299 6.55448 229.299 5.12241C229.299 3.69034 229.802 2.47859 230.807 1.48715C231.813 0.495717 233.043 0 234.495 0C235.892 0 237.066 0.495717 238.016 1.48715C239.022 2.47859 239.525 3.69034 239.525 5.12241C239.525 6.55448 239.022 7.76623 238.016 8.75767C237.066 9.7491 235.892 10.2448 234.495 10.2448ZM238.184 17.598V62.8734H230.556V17.598H238.184Z" fill="white"/>
<path d="M306.42 16.7718C309.997 16.7718 313.182 17.5153 315.976 19.0025C318.77 20.4346 320.977 22.6102 322.597 25.5294C324.218 28.4486 325.028 32.0013 325.028 36.1873V62.8734H317.484V37.2614C317.484 32.7449 316.339 29.3024 314.048 26.934C311.813 24.5105 308.767 23.2987 304.911 23.2987C300.944 23.2987 297.787 24.5655 295.44 27.0992C293.093 29.5778 291.919 33.1855 291.919 37.9224V62.8734H284.376V37.2614C284.376 32.7449 283.23 29.3024 280.939 26.934C278.704 24.5105 275.659 23.2987 271.803 23.2987C267.835 23.2987 264.678 24.5655 262.331 27.0992C259.984 29.5778 258.811 33.1855 258.811 37.9224V62.8734H251.183V17.598H258.811V24.1249C260.32 21.7565 262.331 19.9388 264.846 18.672C267.416 17.4052 270.238 16.7718 273.312 16.7718C277.167 16.7718 280.576 17.6255 283.538 19.333C286.499 21.0404 288.706 23.5466 290.159 26.8513C291.445 23.6567 293.568 21.1781 296.53 19.4156C299.491 17.653 302.788 16.7718 306.42 16.7718Z" fill="white"/>
<path d="M339.971 63.3692C338.518 63.3692 337.289 62.8734 336.283 61.882C335.277 60.8906 334.774 59.6788 334.774 58.2467C334.774 56.8147 335.277 55.6029 336.283 54.6115C337.289 53.6201 338.518 53.1243 339.971 53.1243C341.368 53.1243 342.541 53.6201 343.491 54.6115C344.497 55.6029 345 56.8147 345 58.2467C345 59.6788 344.497 60.8906 343.491 61.882C342.541 62.8734 341.368 63.3692 339.971 63.3692Z" fill="white"/>
</svg>
